<svg xmlns="http://www.w3.org/2000/svg"  viewBox="0 0 64 64" width="256px" height="256px"><linearGradient id="KsXfRWqbBCH2nOp40Xinpa" x1="28" x2="28" y1="12.352" y2="53.263" gradientUnits="userSpaceOnUse"><stop offset="0" stop-color="#fcf3fd"/><stop offset="1" stop-color="#6edafc"/></linearGradient><ellipse cx="28" cy="41.5" fill="url(#KsXfRWqbBCH2nOp40Xinpa)" rx="9" ry="3.5"/><linearGradient id="KsXfRWqbBCH2nOp40Xinpb" x1="28" x2="28" y1="12.352" y2="53.263" gradientUnits="userSpaceOnUse"><stop offset="0" stop-color="#fcf3fd"/><stop offset="1" stop-color="#6edafc"/></linearGradient><ellipse cx="28" cy="29" fill="url(#KsXfRWqbBCH2nOp40Xinpb)" rx="4" ry="5"/><linearGradient id="KsXfRWqbBCH2nOp40Xinpc" x1="50" x2="50" y1="12.352" y2="53.263" gradientUnits="userSpaceOnUse"><stop offset="0" stop-color="#fcf3fd"/><stop offset="1" stop-color="#6edafc"/></linearGradient><path fill="url(#KsXfRWqbBCH2nOp40Xinpc)" d="M48.22,54H46V10h2.22c3.192,0,5.78,2.588,5.78,5.78v32.44C54,51.412,51.412,54,48.22,54z"/><linearGradient id="KsXfRWqbBCH2nOp40Xinpd" x1="32" x2="32" y1="7.505" y2="43.825" gradientUnits="userSpaceOnUse"><stop offset="0" stop-color="#E090F0"/><stop offset="1" stop-color="#05BDF5"/></linearGradient><path fill="url(#KsXfRWqbBCH2nOp40Xinpd)" d="M47.923,9H16.077C12.168,9,9,12.168,9,16.077v31.846C9,51.832,12.168,55,16.077,55h31.846 C51.832,55,55,51.832,55,47.923V16.077C55,12.168,51.832,9,47.923,9z M53,16.077V20h-6v-9h0.923C50.727,11,53,13.273,53,16.077z M47,33h6v9h-6V33z M47,31v-9h6v9H47z M11,47.923V16.077C11,13.273,13.273,11,16.077,11H45v42H16.077 C13.273,53,11,50.727,11,47.923z M47.923,53H47v-9h6v3.923C53,50.727,50.727,53,47.923,53z"/><linearGradient id="KsXfRWqbBCH2nOp40Xinpe" x1="28" x2="28" y1="7.505" y2="43.825" gradientUnits="userSpaceOnUse"><stop offset="0" stop-color="#E090F0"/><stop offset="1" stop-color="#05BDF5"/></linearGradient><path fill="url(#KsXfRWqbBCH2nOp40Xinpe)" d="M28,46c-7.72,0-14-6.28-14-14s6.28-14,14-14s14,6.28,14,14S35.72,46,28,46z M28,20 c-6.617,0-12,5.383-12,12s5.383,12,12,12s12-5.383,12-12S34.617,20,28,20z"/><linearGradient id="KsXfRWqbBCH2nOp40Xinpf" x1="28" x2="28" y1="7.505" y2="43.825" gradientUnits="userSpaceOnUse"><stop offset="0" stop-color="#E090F0"/><stop offset="1" stop-color="#05BDF5"/></linearGradient><path fill="url(#KsXfRWqbBCH2nOp40Xinpf)" d="M28,35c-2.757,0-5-2.691-5-6s2.243-6,5-6s5,2.691,5,6S30.757,35,28,35z M28,25 c-1.654,0-3,1.794-3,4s1.346,4,3,4s3-1.794,3-4S29.654,25,28,25z"/><linearGradient id="KsXfRWqbBCH2nOp40Xinpg" x1="28" x2="28" y1="7.505" y2="43.825" gradientUnits="userSpaceOnUse"><stop offset="0" stop-color="#E090F0"/><stop offset="1" stop-color="#05BDF5"/></linearGradient><path fill="url(#KsXfRWqbBCH2nOp40Xinpg)" d="M37.449,41.835C33.709,39.368,29.924,39,28,39s-5.709,0.368-9.449,2.835l-1.102-1.67 C21.626,37.411,25.853,37,28,37s6.374,0.411,10.551,3.165L37.449,41.835z"/></svg>