<svg xmlns="http://www.w3.org/2000/svg"  viewBox="0 0 64 64" width="256px" height="256px"><linearGradient id="SVGID_1_" x1="21.5" x2="21.5" y1="281.223" y2="274.84" gradientTransform="matrix(1 0 0 -1 0 318)" gradientUnits="userSpaceOnUse"><stop offset="0" stop-color="#fcf3fd"/><stop offset="1" stop-color="#6edafc"/></linearGradient><path fill="url(#SVGID_1_)" d="M26,43h-9c-0.6,0-1-0.4-1-1v-3c0-0.6,0.4-1,1-1h9c0.6,0,1,0.4,1,1v3C27,42.6,26.6,43,26,43z"/><linearGradient id="SVGID_2_" x1="23" x2="23" y1="5.553" y2="51.052" gradientUnits="userSpaceOnUse"><stop offset="0" stop-color="#E090F0"/><stop offset="1" stop-color="#05BDF5"/></linearGradient><path fill="url(#SVGID_2_)" d="M30,25c0-2.2-1-4.2-2.7-5.5c0.4-0.7,0.7-1.6,0.7-2.5v-2c0-2.8-2.2-5-5-5s-5,2.2-5,5v2c0,0.9,0.3,1.8,0.7,2.5 C17,20.8,16,22.8,16,25v2h14V25z M20,15c0-1.7,1.3-3,3-3s3,1.3,3,3v2c0,1.7-1.3,3-3,3s-3-1.3-3-3V15z M18,25c0-1.6,0.8-3.1,2-4 c0.8,0.6,1.9,1,3,1s2.1-0.4,3-1c1.3,0.9,2,2.4,2,4H18z"/><linearGradient id="SVGID_3_" x1="21.5" x2="21.5" y1="5.553" y2="51.052" gradientUnits="userSpaceOnUse"><stop offset="0" stop-color="#E090F0"/><stop offset="1" stop-color="#05BDF5"/></linearGradient><rect width="11" height="2" x="16" y="30" fill="url(#SVGID_3_)"/><linearGradient id="SVGID_4_" x1="21.5" x2="21.5" y1="5.553" y2="51.052" gradientUnits="userSpaceOnUse"><stop offset="0" stop-color="#E090F0"/><stop offset="1" stop-color="#05BDF5"/></linearGradient><rect width="11" height="2" x="16" y="34" fill="url(#SVGID_4_)"/><linearGradient id="SVGID_5_" x1="34" x2="34" y1="5.553" y2="51.052" gradientUnits="userSpaceOnUse"><stop offset="0" stop-color="#E090F0"/><stop offset="1" stop-color="#05BDF5"/></linearGradient><rect width="10" height="2" x="29" y="30" fill="url(#SVGID_5_)"/><linearGradient id="SVGID_6_" x1="34" x2="34" y1="5.553" y2="51.052" gradientUnits="userSpaceOnUse"><stop offset="0" stop-color="#E090F0"/><stop offset="1" stop-color="#05BDF5"/></linearGradient><rect width="10" height="2" x="29" y="34" fill="url(#SVGID_6_)"/><linearGradient id="SVGID_7_" x1="36" x2="36" y1="5.553" y2="51.052" gradientUnits="userSpaceOnUse"><stop offset="0" stop-color="#E090F0"/><stop offset="1" stop-color="#05BDF5"/></linearGradient><rect width="6" height="2" x="33" y="19" fill="url(#SVGID_7_)"/><linearGradient id="SVGID_8_" x1="34.5" x2="34.5" y1="5.553" y2="51.052" gradientUnits="userSpaceOnUse"><stop offset="0" stop-color="#E090F0"/><stop offset="1" stop-color="#05BDF5"/></linearGradient><rect width="3" height="2" x="33" y="23" fill="url(#SVGID_8_)"/><linearGradient id="SVGID_9_" x1="32.481" x2="32.481" y1="5.553" y2="51.052" gradientUnits="userSpaceOnUse"><stop offset="0" stop-color="#E090F0"/><stop offset="1" stop-color="#05BDF5"/></linearGradient><path fill="url(#SVGID_9_)" d="M54.8,47.1c-0.3-0.7-1-1.1-1.7-1.1H49v-8c0-1.1-0.9-2-2-2h-2v-7V15.8c0-0.8-0.3-1.6-0.9-2.1l-6.8-6.8 C36.7,6.3,36,6,35.2,6H13c-1.7,0-3,1.3-3,3v40c0,1.7,1.3,3,3,3h5h17.9l5.9,7c0.5,0.6,1.3,1,2.2,1s1.6-0.4,2.2-1l8.3-9.9 C55,48.6,55.1,47.8,54.8,47.1z M37,9.4l4.6,4.6H38c-0.6,0-1-0.4-1-1V9.4z M12,9c0-0.6,0.4-1,1-1h22v5c0,1.7,1.3,3,3,3h5v20h-2 c-1.1,0-2,0.9-2,2v8H13c-0.6,0-1-0.4-1-1V9z M13,50c-0.6,0-1-0.4-1-1v-1.2c0.3,0.1,0.6,0.2,1,0.2h20.1c0,0.4,0.2,0.8,0.4,1.1 l0.7,0.9H13z M44.6,57.7C44.4,58,44.1,58,44,58s-0.4,0-0.6-0.3L35.2,48H36h5V38h6v10h5.8L44.6,57.7z"/></svg>