<svg xmlns="http://www.w3.org/2000/svg"  viewBox="0 0 64 64" width="256px" height="256px"><linearGradient id="JXxU80Xmq4GC5pRDGrxJsa" x1="16" x2="16" y1="11.333" y2="16.896" gradientUnits="userSpaceOnUse" spreadMethod="reflect"><stop offset="0" stop-color="#fcf3fd"/><stop offset="1" stop-color="#6edafc"/></linearGradient><path fill="url(#JXxU80Xmq4GC5pRDGrxJsa)" d="M16,16c-1.103,0-2-0.897-2-2s0.897-2,2-2s2,0.897,2,2S17.103,16,16,16z M16,13.999V14V13.999z"/><linearGradient id="JXxU80Xmq4GC5pRDGrxJsb" x1="22" x2="22" y1="11.333" y2="16.896" gradientUnits="userSpaceOnUse" spreadMethod="reflect"><stop offset="0" stop-color="#fcf3fd"/><stop offset="1" stop-color="#6edafc"/></linearGradient><path fill="url(#JXxU80Xmq4GC5pRDGrxJsb)" d="M22,16c-1.103,0-2-0.897-2-2s0.897-2,2-2s2,0.897,2,2S23.103,16,22,16z M22,13.999V14V13.999z"/><linearGradient id="JXxU80Xmq4GC5pRDGrxJsc" x1="28" x2="28" y1="11.333" y2="16.896" gradientUnits="userSpaceOnUse" spreadMethod="reflect"><stop offset="0" stop-color="#fcf3fd"/><stop offset="1" stop-color="#6edafc"/></linearGradient><path fill="url(#JXxU80Xmq4GC5pRDGrxJsc)" d="M28,16c-1.103,0-2-0.897-2-2s0.897-2,2-2s2,0.897,2,2S29.103,16,28,16z M28,13.999V14V13.999z"/><linearGradient id="JXxU80Xmq4GC5pRDGrxJsd" x1="32" x2="32" y1="8" y2="57.847" gradientUnits="userSpaceOnUse" spreadMethod="reflect"><stop offset="0" stop-color="#E090F0"/><stop offset="1" stop-color="#05BDF5"/></linearGradient><path fill="url(#JXxU80Xmq4GC5pRDGrxJsd)" d="M51,8H13c-2.757,0-5,2.243-5,5v38c0,2.757,2.243,5,5,5h38c2.757,0,5-2.243,5-5V13 C56,10.243,53.757,8,51,8z M13,10h38c1.654,0,3,1.346,3,3v5H10v-5C10,11.346,11.346,10,13,10z M51,54H13c-1.654,0-3-1.346-3-3V20h44 v31C54,52.654,52.654,54,51,54z"/><linearGradient id="JXxU80Xmq4GC5pRDGrxJse" x1="19.92" x2="19.92" y1="8" y2="57.847" gradientUnits="userSpaceOnUse" spreadMethod="reflect"><stop offset="0" stop-color="#E090F0"/><stop offset="1" stop-color="#05BDF5"/></linearGradient><path fill="url(#JXxU80Xmq4GC5pRDGrxJse)" d="M23.171,28.248l-7.137,6.245c-0.435,0.38-0.684,0.93-0.684,1.508s0.249,1.127,0.684,1.508 l7.137,6.244l1.317-1.505l-7.137-6.251l7.137-6.244L23.171,28.248z"/><linearGradient id="JXxU80Xmq4GC5pRDGrxJsf" x1="44.349" x2="44.349" y1="8" y2="57.847" gradientUnits="userSpaceOnUse" spreadMethod="reflect"><stop offset="0" stop-color="#E090F0"/><stop offset="1" stop-color="#05BDF5"/></linearGradient><path fill="url(#JXxU80Xmq4GC5pRDGrxJsf)" d="M41.529,28.285l-1.397,1.431l6.434,6.288l-6.434,6.281l1.397,1.431l6.434-6.281 c0.389-0.38,0.604-0.89,0.604-1.434s-0.215-1.054-0.604-1.434L41.529,28.285z"/><linearGradient id="JXxU80Xmq4GC5pRDGrxJsg" x1="32.5" x2="32.5" y1="8" y2="57.847" gradientUnits="userSpaceOnUse" spreadMethod="reflect"><stop offset="0" stop-color="#E090F0"/><stop offset="1" stop-color="#05BDF5"/></linearGradient><path fill="url(#JXxU80Xmq4GC5pRDGrxJsg)" d="M27.059 48.661L28.941 49.339 37.941 24.339 36.059 23.661z"/></svg>