<svg xmlns="http://www.w3.org/2000/svg"  viewBox="0 0 64 64" width="256px" height="256px"><linearGradient id="LQd3PK_1N6yKkSdj1YnVda" x1="31.937" x2="31.937" y1="61" y2="7.125" gradientTransform="matrix(1 0 0 -1 0 66)" gradientUnits="userSpaceOnUse"><stop offset="0" stop-color="#E090F0"/><stop offset="1" stop-color="#05BDF5"/></linearGradient><path fill="url(#LQd3PK_1N6yKkSdj1YnVda)" d="M31.875,58.875c-0.092,0-0.183-0.013-0.271-0.037l-18.625-5.25 c-0.398-0.113-0.687-0.46-0.725-0.872L8.004,6.091c-0.025-0.28,0.068-0.558,0.258-0.765C8.451,5.118,8.719,5,9,5h45.875 c0.28,0,0.547,0.117,0.736,0.324c0.189,0.206,0.284,0.482,0.26,0.762l-4,46.625c-0.035,0.416-0.327,0.767-0.729,0.878l-19,5.25 C32.054,58.863,31.965,58.875,31.875,58.875z M14.184,51.85l17.694,4.987l18.061-4.99L53.785,7H10.096L14.184,51.85z"/><linearGradient id="LQd3PK_1N6yKkSdj1YnVdb" x1="41.5" x2="41.5" y1="56" y2="12" gradientTransform="matrix(1 0 0 -1 0 66)" gradientUnits="userSpaceOnUse"><stop offset="0" stop-color="#fcf3fd"/><stop offset="1" stop-color="#6edafc"/></linearGradient><path fill="url(#LQd3PK_1N6yKkSdj1YnVdb)" d="M32,10v44l15.25-4L51,10H32z M47.375,28.625l-1.125,14.75L33.75,46.5v-5.25l9-2.5l0.125-4.375l-9.25,1.375V16H48.25l-0.375,5.375L38.25,21.5v8.125 L47.375,28.625z"/><linearGradient id="LQd3PK_1N6yKkSdj1YnVdc" x1="23.313" x2="23.313" y1="50" y2="19.375" gradientTransform="matrix(1 0 0 -1 0 66)" gradientUnits="userSpaceOnUse"><stop offset="0" stop-color="#fcf3fd"/><stop offset="1" stop-color="#6edafc"/></linearGradient><polygon fill="url(#LQd3PK_1N6yKkSdj1YnVdc)" points="16.625,42.875 16.625,37.375 25.625,39.875 25.625,16 30,16 30,46.625"/></svg>