<svg xmlns="http://www.w3.org/2000/svg"  viewBox="0 0 64 64" width="256px" height="256px" baseProfile="basic"><linearGradient id="UTmjGQFsMx0qMPbxbyn6Za" x1="97.553" x2="142.61" y1="502.876" y2="502.876" gradientTransform="rotate(90 317.36 226.017)" gradientUnits="userSpaceOnUse"><stop offset="0" stop-color="#fcf3fd"/><stop offset="1" stop-color="#6edafc"/></linearGradient><path fill="url(#UTmjGQFsMx0qMPbxbyn6Za)" d="M35.002,51.713V9.465	c5.056,4.843,10.997,10.015,10.997,23.536C45.999,42.23,41.001,47.713,35.002,51.713z"/><linearGradient id="UTmjGQFsMx0qMPbxbyn6Zb" x1="96.485" x2="158.195" y1="505.002" y2="505.002" gradientTransform="rotate(90 315.775 221.229)" gradientUnits="userSpaceOnUse"><stop offset="0" stop-color="#E090F0"/><stop offset="1" stop-color="#05BDF5"/></linearGradient><path fill="url(#UTmjGQFsMx0qMPbxbyn6Zb)" d="M31.002,64.001v-6.405	c-7.884-4.38-17-11.117-17-24.595c0-21.316,13.708-24.928,17.085-32.411c0.353-0.783,1.469-0.783,1.823,0	c3.392,7.516,17.089,11.091,17.089,32.411c0,13.473-9.116,20.212-16.999,24.591l0.001,6.409H31.002z M31.002,55.273V8.001h2v47.268	l1.489-0.86c6.928-4.251,13.508-10.395,13.508-21.408c0-17.967-10.056-22.265-15.101-28.668l-0.901-1.272l-0.893,1.26	c-5.036,6.385-15.101,10.717-15.101,28.68c0,11.013,6.576,17.157,13.503,21.408L31.002,55.273z"/><linearGradient id="UTmjGQFsMx0qMPbxbyn6Zc" x1="99.108" x2="133.968" y1="507.579" y2="507.579" gradientTransform="rotate(90 307.974 221.295)" gradientUnits="userSpaceOnUse"><stop offset="0" stop-color="#fcf3fd"/><stop offset="1" stop-color="#6edafc"/></linearGradient><path fill="url(#UTmjGQFsMx0qMPbxbyn6Zc)" d="M18.002,33.001c0-8.771,2.489-14.061,5.697-18.053	l1.559,1.252c-2.92,3.635-5.256,8.484-5.256,16.801c0,5.829,2.165,9.976,5.375,13.229l-1.423,1.404	C20.414,44.047,18.002,39.409,18.002,33.001z"/></svg>